{
    "asset" : {
        "generator" : "Khronos glTF Blender I/O v1.5.17",
        "version" : "2.0"
    },
    "scene" : 0,
    "scenes" : [
        {
            "name" : "Scene",
            "nodes" : [
                0,
                1,
                2,
                3
            ]
        }
    ],
    "nodes" : [
        {
            "mesh" : 0,
            "name" : "luna_text",
            "rotation" : [
                0.7071068286895752,
                0,
                0,
                0.7071068286895752
            ],
            "scale" : [
                85.43653106689453,
                85.43653106689453,
                85.43653106689453
            ],
            "translation" : [
                -0.9563207030296326,
                0.713927686214447,
                0.38592514395713806
            ]
        },
        {
            "mesh" : 1,
            "name" : "cb_text",
            "rotation" : [
                0.7071068286895752,
                0,
                0,
                0.7071068286895752
            ],
            "scale" : [
                85.43653106689453,
                85.43653106689453,
                85.43653106689453
            ],
            "translation" : [
                -2.6101090908050537,
                0.8224748969078064,
                0.38592517375946045
            ]
        },
        {
            "mesh" : 2,
            "name" : "luna",
            "rotation" : [
                0.7071068286895752,
                0,
                0,
                0.7071068286895752
            ],
            "scale" : [
                85.43653106689453,
                85.43653106689453,
                85.43653106689453
            ],
            "translation" : [
                1.8118032217025757,
                1.5051865577697754,
                0.38592517375946045
            ]
        },
        {
            "mesh" : 3,
            "name" : "slogan_text",
            "rotation" : [
                0.7071068286895752,
                0,
                0,
                0.7071068286895752
            ],
            "scale" : [
                85.43653106689453,
                85.43653106689453,
                85.43653106689453
            ],
            "translation" : [
                -1.278624415397644,
                0.0014185309410095215,
                0.3859251141548157
            ]
        }
    ],
    "materials" : [
        {
            "doubleSided" : true,
            "name" : "azul_claro",
            "pbrMetallicRoughness" : {
                "baseColorFactor" : [
                    0,
                    0.09084174036979675,
                    0.6583749651908875,
                    1
                ],
                "metallicFactor" : 0,
                "roughnessFactor" : 0.5
            }
        },
        {
            "doubleSided" : true,
            "name" : "azul_oscuro",
            "pbrMetallicRoughness" : {
                "baseColorFactor" : [
                    0,
                    0.05780544504523277,
                    0.4019777774810791,
                    1
                ],
                "metallicFactor" : 0,
                "roughnessFactor" : 0.5
            }
        },
        {
            "doubleSided" : true,
            "name" : "luna",
            "pbrMetallicRoughness" : {
                "metallicFactor" : 0.5147058963775635,
                "roughnessFactor" : 0.34117648005485535
            }
        }
    ],
    "meshes" : [
        {
            "name" : "Curve",
            "primitives" : [
                {
                    "attributes" : {
                        "POSITION" : 0,
                        "NORMAL" : 1,
                        "TEXCOORD_0" : 2
                    },
                    "indices" : 3,
                    "material" : 0
                }
            ]
        },
        {
            "name" : "Curve.004",
            "primitives" : [
                {
                    "attributes" : {
                        "POSITION" : 4,
                        "NORMAL" : 5,
                        "TEXCOORD_0" : 6
                    },
                    "indices" : 7,
                    "material" : 1
                }
            ]
        },
        {
            "name" : "path1246-5-6-6-5-9-6",
            "primitives" : [
                {
                    "attributes" : {
                        "POSITION" : 8,
                        "NORMAL" : 9,
                        "TEXCOORD_0" : 10
                    },
                    "indices" : 11,
                    "material" : 2
                }
            ]
        },
        {
            "name" : "Curve.017",
            "primitives" : [
                {
                    "attributes" : {
                        "POSITION" : 12,
                        "NORMAL" : 13,
                        "TEXCOORD_0" : 14
                    },
                    "indices" : 15
                }
            ]
        }
    ],
    "accessors" : [
        {
            "bufferView" : 0,
            "componentType" : 5126,
            "count" : 956,
            "max" : [
                0.041609808802604675,
                0.0010000000474974513,
                0.005041409283876419
            ],
            "min" : [
                -0.00360310822725296,
                -0.0010000000474974513,
                -0.0073175616562366486
            ],
            "type" : "VEC3"
        },
        {
            "bufferView" : 1,
            "componentType" : 5126,
            "count" : 956,
            "type" : "VEC3"
        },
        {
            "bufferView" : 2,
            "componentType" : 5126,
            "count" : 956,
            "type" : "VEC2"
        },
        {
            "bufferView" : 3,
            "componentType" : 5123,
            "count" : 1788,
            "type" : "SCALAR"
        },
        {
            "bufferView" : 4,
            "componentType" : 5126,
            "count" : 5250,
            "max" : [
                0.013608880341053009,
                0.0010000000474974513,
                0.006283707916736603
            ],
            "min" : [
                -0.005300391465425491,
                -0.0010000000474974513,
                -0.006272792816162109
            ],
            "type" : "VEC3"
        },
        {
            "bufferView" : 5,
            "componentType" : 5126,
            "count" : 5250,
            "type" : "VEC3"
        },
        {
            "bufferView" : 6,
            "componentType" : 5126,
            "count" : 5250,
            "type" : "VEC2"
        },
        {
            "bufferView" : 7,
            "componentType" : 5123,
            "count" : 9600,
            "type" : "SCALAR"
        },
        {
            "bufferView" : 8,
            "componentType" : 5126,
            "count" : 631,
            "max" : [
                0.02131657674908638,
                0.0010000000474974513,
                0.03374418616294861
            ],
            "min" : [
                -0.0342530682682991,
                -0.0010000000474974513,
                -0.025932330638170242
            ],
            "type" : "VEC3"
        },
        {
            "bufferView" : 9,
            "componentType" : 5126,
            "count" : 631,
            "type" : "VEC3"
        },
        {
            "bufferView" : 10,
            "componentType" : 5126,
            "count" : 631,
            "type" : "VEC2"
        },
        {
            "bufferView" : 11,
            "componentType" : 5123,
            "count" : 1140,
            "type" : "SCALAR"
        },
        {
            "bufferView" : 12,
            "componentType" : 5126,
            "count" : 47698,
            "max" : [
                0.04608780890703201,
                0.0010000000474974513,
                0.0023451526649296284
            ],
            "min" : [
                -0.020800210535526276,
                -0.0010000000474974513,
                -0.000927999964915216
            ],
            "type" : "VEC3"
        },
        {
            "bufferView" : 13,
            "componentType" : 5126,
            "count" : 47698,
            "type" : "VEC3"
        },
        {
            "bufferView" : 14,
            "componentType" : 5126,
            "count" : 47698,
            "type" : "VEC2"
        },
        {
            "bufferView" : 15,
            "componentType" : 5123,
            "count" : 88116,
            "type" : "SCALAR"
        }
    ],
    "bufferViews" : [
        {
            "buffer" : 0,
            "byteLength" : 11472,
            "byteOffset" : 0
        },
        {
            "buffer" : 0,
            "byteLength" : 11472,
            "byteOffset" : 11472
        },
        {
            "buffer" : 0,
            "byteLength" : 7648,
            "byteOffset" : 22944
        },
        {
            "buffer" : 0,
            "byteLength" : 3576,
            "byteOffset" : 30592
        },
        {
            "buffer" : 0,
            "byteLength" : 63000,
            "byteOffset" : 34168
        },
        {
            "buffer" : 0,
            "byteLength" : 63000,
            "byteOffset" : 97168
        },
        {
            "buffer" : 0,
            "byteLength" : 42000,
            "byteOffset" : 160168
        },
        {
            "buffer" : 0,
            "byteLength" : 19200,
            "byteOffset" : 202168
        },
        {
            "buffer" : 0,
            "byteLength" : 7572,
            "byteOffset" : 221368
        },
        {
            "buffer" : 0,
            "byteLength" : 7572,
            "byteOffset" : 228940
        },
        {
            "buffer" : 0,
            "byteLength" : 5048,
            "byteOffset" : 236512
        },
        {
            "buffer" : 0,
            "byteLength" : 2280,
            "byteOffset" : 241560
        },
        {
            "buffer" : 0,
            "byteLength" : 572376,
            "byteOffset" : 243840
        },
        {
            "buffer" : 0,
            "byteLength" : 572376,
            "byteOffset" : 816216
        },
        {
            "buffer" : 0,
            "byteLength" : 381584,
            "byteOffset" : 1388592
        },
        {
            "buffer" : 0,
            "byteLength" : 176232,
            "byteOffset" : 1770176
        }
    ],
    "buffers" : [
        {
            "byteLength" : 1946408,
            "uri" : "data:application/octet-stream;base64,"
        }
    ]
}
