{
	"asset":{
		"generator":"Khronos glTF Blender I/O v3.6.28",
		"version":"2.0"
	},
	"scene":0,
	"scenes":[
		{
			"name":"Scene",
			"nodes":[
				0,
				1,
				2,
				3,
				4,
				5,
				6,
				7
			]
		}
	],
	"nodes":[
		{
			"mesh":0,
			"name":"pantalla_iphone",
			"rotation":[
				-0.7071049213409424,
				0.0015437741531059146,
				-0.0015437760157510638,
				0.7071053385734558
			],
			"scale":[
				1.5567561388015747,
				0.11555124074220657,
				1.5567572116851807
			],
			"translation":[
				-0.008808527141809464,
				0.8507605195045471,
				-0.000521831214427948
			]
		},
		{
			"mesh":1,
			"name":"pantalla_mac",
			"rotation":[
				-0.70710688829422,
				0,
				0,
				0.7071066498756409
			],
			"scale":[
				1.269012689590454,
				1.2690128087997437,
				1.2690128087997437
			],
			"translation":[
				25.5371036529541,
				0,
				0
			]
		},
		{
			"mesh":2,
			"name":"cuerpo_ipad",
			"rotation":[
				0,
				0,
				-0.7071068286895752,
				0.7071067094802856
			],
			"translation":[
				-26.74187660217285,
				-0.06602393090724945,
				0.036341145634651184
			]
		},
		{
			"mesh":3,
			"name":"Cube",
			"translation":[
				0,
				0,
				18.901641845703125
			]
		},
		{
			"mesh":4,
			"name":"Cube.001",
			"translation":[
				18.901639938354492,
				0,
				8.992643415695056e-06
			]
		},
		{
			"mesh":5,
			"name":"Cube.002",
			"translation":[
				1.348898877040483e-05,
				0,
				-18.901639938354492
			]
		},
		{
			"mesh":6,
			"name":"Cube.003",
			"translation":[
				-18.901641845703125,
				0,
				-2.2481626729131676e-06
			]
		},
		{
			"name":"C\u00edrculo Bezier",
			"scale":[
				18.901641845703125,
				18.901641845703125,
				18.901641845703125
			]
		}
	],
	"animations":[
		{
			"channels":[
				{
					"sampler":0,
					"target":{
						"node":3,
						"path":"translation"
					}
				}
			],
			"name":"Orbitar1",
			"samplers":[
				{
					"input":54,
					"interpolation":"LINEAR",
					"output":55
				}
			]
		},
		{
			"channels":[
				{
					"sampler":0,
					"target":{
						"node":4,
						"path":"translation"
					}
				}
			],
			"name":"Orbitar2",
			"samplers":[
				{
					"input":56,
					"interpolation":"LINEAR",
					"output":57
				}
			]
		},
		{
			"channels":[
				{
					"sampler":0,
					"target":{
						"node":5,
						"path":"translation"
					}
				}
			],
			"name":"Orbitar3",
			"samplers":[
				{
					"input":54,
					"interpolation":"LINEAR",
					"output":58
				}
			]
		},
		{
			"channels":[
				{
					"sampler":0,
					"target":{
						"node":6,
						"path":"translation"
					}
				}
			],
			"name":"Orbitar4",
			"samplers":[
				{
					"input":54,
					"interpolation":"LINEAR",
					"output":59
				}
			]
		}
	],
	"materials":[
		{
			"doubleSided":true,
			"emissiveFactor":[
				0.31446540355682373,
				0.31446540355682373,
				0.31446540355682373
			],
			"emissiveTexture":{
				"index":0
			},
			"name":"Material.004",
			"pbrMetallicRoughness":{
				"baseColorTexture":{
					"index":1
				},
				"metallicFactor":0,
				"roughnessFactor":0
			}
		},
		{
			"doubleSided":true,
			"name":"Material.001",
			"pbrMetallicRoughness":{
				"baseColorTexture":{
					"index":2
				},
				"roughnessFactor":0
			}
		},
		{
			"doubleSided":true,
			"name":"Material.003",
			"pbrMetallicRoughness":{
				"baseColorFactor":[
					0.09991460293531418,
					0.0964789018034935,
					0.0964789018034935,
					1
				],
				"roughnessFactor":0
			}
		},
		{
			"doubleSided":true,
			"name":"Material.002",
			"pbrMetallicRoughness":{
				"baseColorTexture":{
					"index":3
				},
				"metallicFactor":0.49056604504585266,
				"roughnessFactor":0
			}
		},
		{
			"doubleSided":true,
			"name":"Glass_-_Heavy_Color",
			"pbrMetallicRoughness":{
				"baseColorTexture":{
					"index":4
				},
				"metallicFactor":0,
				"roughnessFactor":0
			}
		},
		{
			"doubleSided":true,
			"name":"Aluminum_-_Anodized_Glossy_Grey_keyboard.jpg",
			"pbrMetallicRoughness":{
				"baseColorTexture":{
					"index":5
				},
				"metallicFactor":0.5341968536376953,
				"roughnessFactor":0.30000001192092896
			}
		},
		{
			"doubleSided":true,
			"name":"Aluminum_-_Anodized_Glossy_Grey",
			"pbrMetallicRoughness":{
				"baseColorFactor":[
					0.02217390015721321,
					0.0307133998721838,
					0.04666509851813316,
					1
				],
				"metallicFactor":0.699999988079071,
				"roughnessFactor":0.30000001192092896
			}
		},
		{
			"doubleSided":true,
			"name":"Plastic_-_Translucent_Matte_Gray",
			"pbrMetallicRoughness":{
				"baseColorFactor":[
					0,
					0,
					0,
					1
				],
				"metallicFactor":0,
				"roughnessFactor":0.8434919714927673
			}
		},
		{
			"doubleSided":true,
			"name":"Body",
			"pbrMetallicRoughness":{
				"baseColorFactor":[
					0.800000011920929,
					0.800000011920929,
					0.800000011920929,
					1
				],
				"metallicFactor":0.9740932583808899,
				"roughnessFactor":0.36683952808380127
			}
		},
		{
			"doubleSided":true,
			"name":"Dark_ipad",
			"pbrMetallicRoughness":{
				"baseColorFactor":[
					0.22232376039028168,
					0.22232376039028168,
					0.22232376039028168,
					1
				],
				"metallicFactor":0,
				"roughnessFactor":0.6000000238418579
			}
		},
		{
			"doubleSided":true,
			"name":"pantalla_iphad",
			"pbrMetallicRoughness":{
				"baseColorFactor":[
					0,
					0,
					0,
					1
				],
				"metallicFactor":0.06735751032829285,
				"roughnessFactor":0.49637308716773987
			}
		},
		{
			"doubleSided":true,
			"name":"Material",
			"pbrMetallicRoughness":{
				"baseColorFactor":[
					0.800000011920929,
					0.800000011920929,
					0.800000011920929,
					1
				],
				"metallicFactor":0,
				"roughnessFactor":0.5
			}
		}
	],
	"meshes":[
		{
			"name":"iphone x_Material.004_0",
			"primitives":[
				{
					"attributes":{
						"POSITION":0,
						"NORMAL":1,
						"TEXCOORD_0":2
					},
					"indices":3,
					"material":0
				},
				{
					"attributes":{
						"POSITION":4,
						"NORMAL":5,
						"TEXCOORD_0":6
					},
					"indices":7,
					"material":1
				},
				{
					"attributes":{
						"POSITION":8,
						"NORMAL":9,
						"TEXCOORD_0":10
					},
					"indices":11,
					"material":2
				},
				{
					"attributes":{
						"POSITION":12,
						"NORMAL":13,
						"TEXCOORD_0":14
					},
					"indices":15,
					"material":3
				}
			]
		},
		{
			"name":"Object_2",
			"primitives":[
				{
					"attributes":{
						"POSITION":16,
						"NORMAL":17,
						"TEXCOORD_0":18
					},
					"indices":19,
					"material":4
				},
				{
					"attributes":{
						"POSITION":20,
						"NORMAL":21,
						"TEXCOORD_0":22
					},
					"indices":23,
					"material":5
				},
				{
					"attributes":{
						"POSITION":24,
						"NORMAL":25,
						"TEXCOORD_0":26
					},
					"indices":27,
					"material":6
				},
				{
					"attributes":{
						"POSITION":28,
						"NORMAL":29,
						"TEXCOORD_0":30
					},
					"indices":31,
					"material":7
				}
			]
		},
		{
			"name":"Cube.003_Body_0",
			"primitives":[
				{
					"attributes":{
						"POSITION":32,
						"NORMAL":33
					},
					"indices":34,
					"material":8
				},
				{
					"attributes":{
						"POSITION":35,
						"NORMAL":36
					},
					"indices":37,
					"material":9
				},
				{
					"attributes":{
						"POSITION":38,
						"NORMAL":39
					},
					"indices":40,
					"material":10
				}
			]
		},
		{
			"name":"Cube",
			"primitives":[
				{
					"attributes":{
						"POSITION":41,
						"NORMAL":42,
						"TEXCOORD_0":43
					},
					"indices":44,
					"material":11
				}
			]
		},
		{
			"name":"Cube.001",
			"primitives":[
				{
					"attributes":{
						"POSITION":45,
						"NORMAL":46,
						"TEXCOORD_0":47
					},
					"indices":44,
					"material":11
				}
			]
		},
		{
			"name":"Cube.002",
			"primitives":[
				{
					"attributes":{
						"POSITION":48,
						"NORMAL":49,
						"TEXCOORD_0":50
					},
					"indices":44,
					"material":11
				}
			]
		},
		{
			"name":"Cube.003",
			"primitives":[
				{
					"attributes":{
						"POSITION":51,
						"NORMAL":52,
						"TEXCOORD_0":53
					},
					"indices":44,
					"material":11
				}
			]
		}
	],
	"textures":[
		{
			"sampler":0,
			"source":0
		},
		{
			"sampler":0,
			"source":0
		},
		{
			"sampler":0,
			"source":0
		},
		{
			"sampler":0,
			"source":1
		},
		{
			"sampler":0,
			"source":2
		},
		{
			"sampler":0,
			"source":3
		}
	],
	"images":[
		{
			"bufferView":4,
			"mimeType":"image/jpeg",
			"name":"Material.001_baseColor"
		},
		{
			"bufferView":17,
			"mimeType":"image/jpeg",
			"name":"Material.002_baseColor"
		},
		{
			"bufferView":22,
			"mimeType":"image/jpeg",
			"name":"Glass_-_Heavy_Color_baseColor"
		},
		{
			"bufferView":27,
			"mimeType":"image/jpeg",
			"name":"Aluminum_-_Anodized_Glossy_Grey_keyboard.jpg_baseColor"
		}
	],
	"accessors":[
		{
			"bufferView":0,
			"componentType":5126,
			"count":45,
			"max":[
				0.7869988083839417,
				-0.8102119565010071,
				1.6886812448501587
			],
			"min":[
				-0.8118631839752197,
				-0.8102121949195862,
				-1.7402620315551758
			],
			"type":"VEC3"
		},
		{
			"bufferView":1,
			"componentType":5126,
			"count":45,
			"type":"VEC3"
		},
		{
			"bufferView":2,
			"componentType":5126,
			"count":45,
			"type":"VEC2"
		},
		{
			"bufferView":3,
			"componentType":5123,
			"count":120,
			"type":"SCALAR"
		},
		{
			"bufferView":5,
			"componentType":5126,
			"count":252,
			"max":[
				0.8957133293151855,
				-0.8102120757102966,
				1.7973958253860474
			],
			"min":[
				-0.9205778241157532,
				-1.0045182704925537,
				-1.8489766120910645
			],
			"type":"VEC3"
		},
		{
			"bufferView":6,
			"componentType":5126,
			"count":252,
			"type":"VEC3"
		},
		{
			"bufferView":7,
			"componentType":5126,
			"count":252,
			"type":"VEC2"
		},
		{
			"bufferView":8,
			"componentType":5123,
			"count":756,
			"type":"SCALAR"
		},
		{
			"bufferView":9,
			"componentType":5126,
			"count":84,
			"max":[
				0.8957133293151855,
				0.9954817891120911,
				1.7973957061767578
			],
			"min":[
				-0.9205778241157532,
				-1.0045182704925537,
				-1.8489766120910645
			],
			"type":"VEC3"
		},
		{
			"bufferView":10,
			"componentType":5126,
			"count":84,
			"type":"VEC3"
		},
		{
			"bufferView":11,
			"componentType":5126,
			"count":84,
			"type":"VEC2"
		},
		{
			"bufferView":12,
			"componentType":5123,
			"count":252,
			"type":"SCALAR"
		},
		{
			"bufferView":13,
			"componentType":5126,
			"count":1323,
			"max":[
				0.8957133293151855,
				1.2223548889160156,
				1.7973957061767578
			],
			"min":[
				-0.9205778241157532,
				0.8592674136161804,
				-1.8489766120910645
			],
			"type":"VEC3"
		},
		{
			"bufferView":14,
			"componentType":5126,
			"count":1323,
			"type":"VEC3"
		},
		{
			"bufferView":15,
			"componentType":5126,
			"count":1323,
			"type":"VEC2"
		},
		{
			"bufferView":16,
			"componentType":5123,
			"count":1926,
			"type":"SCALAR"
		},
		{
			"bufferView":18,
			"componentType":5126,
			"count":190,
			"max":[
				1.5116909742355347,
				1.086717963218689,
				2.0544979572296143
			],
			"min":[
				-1.5116909742355347,
				1.0817179679870605,
				0.010259999893605709
			],
			"type":"VEC3"
		},
		{
			"bufferView":19,
			"componentType":5126,
			"count":190,
			"type":"VEC3"
		},
		{
			"bufferView":20,
			"componentType":5126,
			"count":190,
			"type":"VEC2"
		},
		{
			"bufferView":21,
			"componentType":5123,
			"count":708,
			"type":"SCALAR"
		},
		{
			"bufferView":23,
			"componentType":5126,
			"count":3806,
			"max":[
				1.5201928615570068,
				1.0744179487228394,
				-0.03400000184774399
			],
			"min":[
				-1.5201890468597412,
				-1.0744199752807617,
				-0.127360001206398
			],
			"type":"VEC3"
		},
		{
			"bufferView":24,
			"componentType":5126,
			"count":3806,
			"type":"VEC3"
		},
		{
			"bufferView":25,
			"componentType":5126,
			"count":3806,
			"type":"VEC2"
		},
		{
			"bufferView":26,
			"componentType":5123,
			"count":11016,
			"type":"SCALAR"
		},
		{
			"bufferView":28,
			"componentType":5126,
			"count":873,
			"max":[
				1.5201928615570068,
				1.1157180070877075,
				2.0629990100860596
			],
			"min":[
				-1.5201890468597412,
				1.086717963218689,
				-0.08584000170230865
			],
			"type":"VEC3"
		},
		{
			"bufferView":29,
			"componentType":5126,
			"count":873,
			"type":"VEC3"
		},
		{
			"bufferView":30,
			"componentType":5126,
			"count":873,
			"type":"VEC2"
		},
		{
			"bufferView":31,
			"componentType":5123,
			"count":3000,
			"type":"SCALAR"
		},
		{
			"bufferView":32,
			"componentType":5126,
			"count":157,
			"max":[
				1.5078078508377075,
				1.086717963218689,
				0.010259999893605709
			],
			"min":[
				-1.5078051090240479,
				1.0432629585266113,
				-0.07733999937772751
			],
			"type":"VEC3"
		},
		{
			"bufferView":33,
			"componentType":5126,
			"count":157,
			"type":"VEC3"
		},
		{
			"bufferView":34,
			"componentType":5126,
			"count":157,
			"type":"VEC2"
		},
		{
			"bufferView":35,
			"componentType":5123,
			"count":360,
			"type":"SCALAR"
		},
		{
			"bufferView":36,
			"componentType":5126,
			"count":844,
			"max":[
				2.465135097503662,
				1.5007081031799316,
				0.0743112564086914
			],
			"min":[
				-2.404629945755005,
				-1.4850177764892578,
				-0.12228941172361374
			],
			"type":"VEC3"
		},
		{
			"bufferView":37,
			"componentType":5126,
			"count":844,
			"type":"VEC3"
		},
		{
			"bufferView":38,
			"componentType":5123,
			"count":4353,
			"type":"SCALAR"
		},
		{
			"bufferView":39,
			"componentType":5126,
			"count":137,
			"max":[
				2.1110329627990723,
				0.04605185240507126,
				0.06299008429050446
			],
			"min":[
				-2.178452491760254,
				-0.052970416843891144,
				-0.011738521978259087
			],
			"type":"VEC3"
		},
		{
			"bufferView":40,
			"componentType":5126,
			"count":137,
			"type":"VEC3"
		},
		{
			"bufferView":41,
			"componentType":5123,
			"count":570,
			"type":"SCALAR"
		},
		{
			"bufferView":42,
			"componentType":5126,
			"count":112,
			"max":[
				1.7526140213012695,
				1.3949944972991943,
				0.06635113060474396
			],
			"min":[
				-1.8867491483688354,
				-1.4019131660461426,
				0.03238101303577423
			],
			"type":"VEC3"
		},
		{
			"bufferView":43,
			"componentType":5126,
			"count":112,
			"type":"VEC3"
		},
		{
			"bufferView":44,
			"componentType":5123,
			"count":228,
			"type":"SCALAR"
		},
		{
			"bufferView":45,
			"componentType":5126,
			"count":24,
			"max":[
				1,
				1,
				1
			],
			"min":[
				-1,
				-1,
				-1
			],
			"type":"VEC3"
		},
		{
			"bufferView":46,
			"componentType":5126,
			"count":24,
			"type":"VEC3"
		},
		{
			"bufferView":47,
			"componentType":5126,
			"count":24,
			"type":"VEC2"
		},
		{
			"bufferView":48,
			"componentType":5123,
			"count":36,
			"type":"SCALAR"
		},
		{
			"bufferView":49,
			"componentType":5126,
			"count":24,
			"max":[
				1,
				1,
				1
			],
			"min":[
				-1,
				-1,
				-1
			],
			"type":"VEC3"
		},
		{
			"bufferView":50,
			"componentType":5126,
			"count":24,
			"type":"VEC3"
		},
		{
			"bufferView":51,
			"componentType":5126,
			"count":24,
			"type":"VEC2"
		},
		{
			"bufferView":52,
			"componentType":5126,
			"count":24,
			"max":[
				1,
				1,
				1
			],
			"min":[
				-1,
				-1,
				-1
			],
			"type":"VEC3"
		},
		{
			"bufferView":53,
			"componentType":5126,
			"count":24,
			"type":"VEC3"
		},
		{
			"bufferView":54,
			"componentType":5126,
			"count":24,
			"type":"VEC2"
		},
		{
			"bufferView":55,
			"componentType":5126,
			"count":24,
			"max":[
				1,
				1,
				1
			],
			"min":[
				-1,
				-1,
				-1
			],
			"type":"VEC3"
		},
		{
			"bufferView":56,
			"componentType":5126,
			"count":24,
			"type":"VEC3"
		},
		{
			"bufferView":57,
			"componentType":5126,
			"count":24,
			"type":"VEC2"
		},
		{
			"bufferView":58,
			"componentType":5126,
			"count":500,
			"max":[
				8.333333333333334
			],
			"min":[
				0.016666666666666666
			],
			"type":"SCALAR"
		},
		{
			"bufferView":59,
			"componentType":5126,
			"count":500,
			"type":"VEC3"
		},
		{
			"bufferView":60,
			"componentType":5126,
			"count":500,
			"max":[
				8.35
			],
			"min":[
				0.03333333333333333
			],
			"type":"SCALAR"
		},
		{
			"bufferView":61,
			"componentType":5126,
			"count":500,
			"type":"VEC3"
		},
		{
			"bufferView":62,
			"componentType":5126,
			"count":500,
			"type":"VEC3"
		},
		{
			"bufferView":63,
			"componentType":5126,
			"count":500,
			"type":"VEC3"
		}
	],
	"bufferViews":[
		{
			"buffer":0,
			"byteLength":540,
			"byteOffset":0,
			"target":34962
		},
		{
			"buffer":0,
			"byteLength":540,
			"byteOffset":540,
			"target":34962
		},
		{
			"buffer":0,
			"byteLength":360,
			"byteOffset":1080,
			"target":34962
		},
		{
			"buffer":0,
			"byteLength":240,
			"byteOffset":1440,
			"target":34963
		},
		{
			"buffer":0,
			"byteLength":120385,
			"byteOffset":1680
		},
		{
			"buffer":0,
			"byteLength":3024,
			"byteOffset":122068,
			"target":34962
		},
		{
			"buffer":0,
			"byteLength":3024,
			"byteOffset":125092,
			"target":34962
		},
		{
			"buffer":0,
			"byteLength":2016,
			"byteOffset":128116,
			"target":34962
		},
		{
			"buffer":0,
			"byteLength":1512,
			"byteOffset":130132,
			"target":34963
		},
		{
			"buffer":0,
			"byteLength":1008,
			"byteOffset":131644,
			"target":34962
		},
		{
			"buffer":0,
			"byteLength":1008,
			"byteOffset":132652,
			"target":34962
		},
		{
			"buffer":0,
			"byteLength":672,
			"byteOffset":133660,
			"target":34962
		},
		{
			"buffer":0,
			"byteLength":504,
			"byteOffset":134332,
			"target":34963
		},
		{
			"buffer":0,
			"byteLength":15876,
			"byteOffset":134836,
			"target":34962
		},
		{
			"buffer":0,
			"byteLength":15876,
			"byteOffset":150712,
			"target":34962
		},
		{
			"buffer":0,
			"byteLength":10584,
			"byteOffset":166588,
			"target":34962
		},
		{
			"buffer":0,
			"byteLength":3852,
			"byteOffset":177172,
			"target":34963
		},
		{
			"buffer":0,
			"byteLength":72233,
			"byteOffset":181024
		},
		{
			"buffer":0,
			"byteLength":2280,
			"byteOffset":253260,
			"target":34962
		},
		{
			"buffer":0,
			"byteLength":2280,
			"byteOffset":255540,
			"target":34962
		},
		{
			"buffer":0,
			"byteLength":1520,
			"byteOffset":257820,
			"target":34962
		},
		{
			"buffer":0,
			"byteLength":1416,
			"byteOffset":259340,
			"target":34963
		},
		{
			"buffer":0,
			"byteLength":929587,
			"byteOffset":260756
		},
		{
			"buffer":0,
			"byteLength":45672,
			"byteOffset":1190344,
			"target":34962
		},
		{
			"buffer":0,
			"byteLength":45672,
			"byteOffset":1236016,
			"target":34962
		},
		{
			"buffer":0,
			"byteLength":30448,
			"byteOffset":1281688,
			"target":34962
		},
		{
			"buffer":0,
			"byteLength":22032,
			"byteOffset":1312136,
			"target":34963
		},
		{
			"buffer":0,
			"byteLength":227539,
			"byteOffset":1334168
		},
		{
			"buffer":0,
			"byteLength":10476,
			"byteOffset":1561708,
			"target":34962
		},
		{
			"buffer":0,
			"byteLength":10476,
			"byteOffset":1572184,
			"target":34962
		},
		{
			"buffer":0,
			"byteLength":6984,
			"byteOffset":1582660,
			"target":34962
		},
		{
			"buffer":0,
			"byteLength":6000,
			"byteOffset":1589644,
			"target":34963
		},
		{
			"buffer":0,
			"byteLength":1884,
			"byteOffset":1595644,
			"target":34962
		},
		{
			"buffer":0,
			"byteLength":1884,
			"byteOffset":1597528,
			"target":34962
		},
		{
			"buffer":0,
			"byteLength":1256,
			"byteOffset":1599412,
			"target":34962
		},
		{
			"buffer":0,
			"byteLength":720,
			"byteOffset":1600668,
			"target":34963
		},
		{
			"buffer":0,
			"byteLength":10128,
			"byteOffset":1601388,
			"target":34962
		},
		{
			"buffer":0,
			"byteLength":10128,
			"byteOffset":1611516,
			"target":34962
		},
		{
			"buffer":0,
			"byteLength":8706,
			"byteOffset":1621644,
			"target":34963
		},
		{
			"buffer":0,
			"byteLength":1644,
			"byteOffset":1630352,
			"target":34962
		},
		{
			"buffer":0,
			"byteLength":1644,
			"byteOffset":1631996,
			"target":34962
		},
		{
			"buffer":0,
			"byteLength":1140,
			"byteOffset":1633640,
			"target":34963
		},
		{
			"buffer":0,
			"byteLength":1344,
			"byteOffset":1634780,
			"target":34962
		},
		{
			"buffer":0,
			"byteLength":1344,
			"byteOffset":1636124,
			"target":34962
		},
		{
			"buffer":0,
			"byteLength":456,
			"byteOffset":1637468,
			"target":34963
		},
		{
			"buffer":0,
			"byteLength":288,
			"byteOffset":1637924,
			"target":34962
		},
		{
			"buffer":0,
			"byteLength":288,
			"byteOffset":1638212,
			"target":34962
		},
		{
			"buffer":0,
			"byteLength":192,
			"byteOffset":1638500,
			"target":34962
		},
		{
			"buffer":0,
			"byteLength":72,
			"byteOffset":1638692,
			"target":34963
		},
		{
			"buffer":0,
			"byteLength":288,
			"byteOffset":1638764,
			"target":34962
		},
		{
			"buffer":0,
			"byteLength":288,
			"byteOffset":1639052,
			"target":34962
		},
		{
			"buffer":0,
			"byteLength":192,
			"byteOffset":1639340,
			"target":34962
		},
		{
			"buffer":0,
			"byteLength":288,
			"byteOffset":1639532,
			"target":34962
		},
		{
			"buffer":0,
			"byteLength":288,
			"byteOffset":1639820,
			"target":34962
		},
		{
			"buffer":0,
			"byteLength":192,
			"byteOffset":1640108,
			"target":34962
		},
		{
			"buffer":0,
			"byteLength":288,
			"byteOffset":1640300,
			"target":34962
		},
		{
			"buffer":0,
			"byteLength":288,
			"byteOffset":1640588,
			"target":34962
		},
		{
			"buffer":0,
			"byteLength":192,
			"byteOffset":1640876,
			"target":34962
		},
		{
			"buffer":0,
			"byteLength":2000,
			"byteOffset":1641068
		},
		{
			"buffer":0,
			"byteLength":6000,
			"byteOffset":1643068
		},
		{
			"buffer":0,
			"byteLength":2000,
			"byteOffset":1649068
		},
		{
			"buffer":0,
			"byteLength":6000,
			"byteOffset":1651068
		},
		{
			"buffer":0,
			"byteLength":6000,
			"byteOffset":1657068
		},
		{
			"buffer":0,
			"byteLength":6000,
			"byteOffset":1663068
		}
	],
	"samplers":[
		{
			"magFilter":9729,
			"minFilter":9987
		}
	],
	"buffers":[
		{
			"byteLength":1669068,
			"uri":"data:application/octet-stream;base64,"
		}
	]
}
