<?xml version="1.0" encoding="UTF-8"?>
<!DOCTYPE svg PUBLIC "-//W3C//DTD SVG 1.1//EN" "http://www.w3.org/Graphics/SVG/1.1/DTD/svg11.dtd">
<svg xmlns="http://www.w3.org/2000/svg" version="1.1" width="150px" height="151px" style="shape-rendering:geometricPrecision; text-rendering:geometricPrecision; image-rendering:optimizeQuality; fill-rule:evenodd; clip-rule:evenodd" xmlns:xlink="http://www.w3.org/1999/xlink">
<g><path style="opacity:0.661" fill="#fefffe" d="M 81.5,22.5 C 112.574,19.4551 133.408,32.4551 144,61.5C 149.301,85.9354 142.135,105.769 122.5,121C 119.281,122.955 115.947,124.288 112.5,125C 133.244,109.818 140.078,89.9849 133,65.5C 124.342,44.5126 108.675,33.1792 86,31.5C 67.9071,32.7142 53.5738,40.7142 43,55.5C 46.69,44.1144 53.8567,35.281 64.5,29C 70.1596,26.5073 75.8263,24.3407 81.5,22.5 Z"/></g>
<g><path style="opacity:0.554" fill="#fefffe" d="M 10.5,71.5 C 14.2148,71.423 17.8815,71.7564 21.5,72.5C 21.7852,74.288 21.4519,75.9547 20.5,77.5C 11.4563,73.6169 7.62297,76.6169 9,86.5C 12.0538,92.4272 16.0538,93.0939 21,88.5C 21.8895,93.5047 19.7228,95.5047 14.5,94.5C 9.94648,94.7928 6.77981,92.7928 5,88.5C 3.07622,81.4413 4.90955,75.7747 10.5,71.5 Z"/></g>
<g><path style="opacity:0.551" fill="#fefffe" d="M 23.5,71.5 C 27.9362,71.2101 32.2695,71.7101 36.5,73C 39.1667,76 39.1667,79 36.5,82C 40.9191,86.8191 40.2524,90.8191 34.5,94C 30.8484,94.4986 27.1817,94.6653 23.5,94.5C 23.5,86.8333 23.5,79.1667 23.5,71.5 Z M 27.5,75.5 C 31.938,74.4251 33.938,76.0917 33.5,80.5C 31.5,80.5 29.5,80.5 27.5,80.5C 27.5,78.8333 27.5,77.1667 27.5,75.5 Z M 27.5,84.5 C 29.5273,84.3379 31.5273,84.5045 33.5,85C 34.8333,86.6667 34.8333,88.3333 33.5,90C 31.5643,90.813 29.5643,91.313 27.5,91.5C 27.5,89.1667 27.5,86.8333 27.5,84.5 Z"/></g>
<g><path style="opacity:0.611" fill="#fefffe" d="M 40.5,71.5 C 42.8333,71.5 45.1667,71.5 47.5,71.5C 47.5,77.5 47.5,83.5 47.5,89.5C 50.5,89.5 53.5,89.5 56.5,89.5C 56.5,91.1667 56.5,92.8333 56.5,94.5C 51.1667,94.5 45.8333,94.5 40.5,94.5C 40.5,86.8333 40.5,79.1667 40.5,71.5 Z"/></g>
<g><path style="opacity:0.658" fill="#fefffe" d="M 58.5,71.5 C 60.5,71.5 62.5,71.5 64.5,71.5C 64.3341,76.5111 64.5007,81.5111 65,86.5C 67,91.8333 69,91.8333 71,86.5C 71.4993,81.5111 71.6659,76.5111 71.5,71.5C 73.5,71.5 75.5,71.5 77.5,71.5C 77.6662,77.8421 77.4995,84.1754 77,90.5C 72.349,96.0703 66.849,96.9037 60.5,93C 59.8742,92.2496 59.3742,91.4162 59,90.5C 58.5005,84.1754 58.3338,77.8421 58.5,71.5 Z"/></g>
<g><path style="opacity:0.619" fill="#fefffe" d="M 81.5,71.5 C 83.8568,71.3367 86.1902,71.5034 88.5,72C 90.7272,74.5641 92.5606,77.3974 94,80.5C 94.498,77.5184 94.6646,74.5184 94.5,71.5C 96.7925,71.2436 98.9592,71.5769 101,72.5C 101.5,79.8258 101.666,87.1591 101.5,94.5C 99.1432,94.6633 96.8098,94.4966 94.5,94C 92.4599,90.0856 90.2933,86.2522 88,82.5C 87.5012,86.4862 87.3345,90.4862 87.5,94.5C 85.5,94.5 83.5,94.5 81.5,94.5C 81.5,86.8333 81.5,79.1667 81.5,71.5 Z"/></g>
<g><path style="opacity:0.648" fill="#fefffe" d="M 110.5,71.5 C 112.792,71.2436 114.959,71.5769 117,72.5C 119.204,79.6139 121.704,86.6139 124.5,93.5C 122.167,94.8333 119.833,94.8333 117.5,93.5C 116.754,92.2638 116.421,90.9305 116.5,89.5C 112.167,88.6853 109.834,90.352 109.5,94.5C 107.076,94.8076 104.743,94.4742 102.5,93.5C 105.19,86.1314 107.856,78.7981 110.5,71.5 Z M 112.5,82.5 C 114.465,82.9483 114.798,83.9483 113.5,85.5C 112.614,84.675 112.281,83.675 112.5,82.5 Z"/></g>
</svg>
