
<svg xmlns="http://www.w3.org/2000/svg" version="1.1" width="1920px" height="1080px" style="shape-rendering:geometricPrecision; text-rendering:geometricPrecision; image-rendering:optimizeQuality; fill-rule:evenodd; clip-rule:evenodd" xmlns:xlink="http://www.w3.org/1999/xlink">
<g><path style="opacity:0.999" fill="#747474" d="M 122.5,57.5 C 284.5,57.3333 446.5,57.5 608.5,58C 650.534,102.365 692.2,147.032 733.5,192C 773.5,192.667 813.5,192.667 853.5,192C 858.201,187.634 862.534,182.967 866.5,178C 926.5,177.333 986.5,177.333 1046.5,178C 1051.17,182.667 1055.83,187.333 1060.5,192C 1099.83,192.667 1139.17,192.667 1178.5,192C 1219.13,147.033 1260.13,102.367 1301.5,58C 1466.83,57.3333 1632.17,57.3333 1797.5,58C 1813.97,76.1354 1830.8,93.9688 1848,111.5C 1849,395.246 1848.67,678.913 1847,962.5C 1830.5,981 1814,999.5 1797.5,1018C 1238.83,1018.67 680.167,1018.67 121.5,1018C 104.702,998.867 87.5357,980.034 70,961.5C 69.3333,677.833 69.3333,394.167 70,110.5C 87.7017,92.9652 105.202,75.2986 122.5,57.5 Z"/></g>
</svg>
